PathFileType	4	(X/Y/Z)	E:\3-PhD\Data\MocapData\ElaboratedData\009\pre\dynamicElaborations\RunL2\RunL2.trc
DataRate	CameraRate	NumFrames	NumMarkers	Units	OrigDataRate	DataStartFrame
200	200	4	54	mm	200	562
Frame#	Time	FHD			LBHD			RBHD			C7			T10			CLAV			LSHO			LUUPA			LMUPA			LDUPA			LLEP			LMEP			LRAD			LUL			LRFIN			RSHO			RUPA1			RMUPA			RDUPA			RLEP			RMEP			RRAD			RUL			RUFIN			RASI			USACR			LSACR			RSACR			LTHI1			LTHI2			LTHI3			LTHI4			LTIB1			LTIB2			LTIB3			LTIB4			LLMAL			LHEE			LMT1			LMT2			RTHI			RTHI2			RTHI3			RTHI4			RLFC			RTIB1			RTIB2			RTIB3			RTIB4			RLMAL			RHEE			RMT1			RMT2			RMT5		
		X1	Y1	Z1	X2	Y2	Z2	X3	Y3	Z3	X4	Y4	Z4	X5	Y5	Z5	X6	Y6	Z6	X7	Y7	Z7	X8	Y8	Z8	X9	Y9	Z9	X10	Y10	Z10	X11	Y11	Z11	X12	Y12	Z12	X13	Y13	Z13	X14	Y14	Z14	X15	Y15	Z15	X16	Y16	Z16	X17	Y17	Z17	X18	Y18	Z18	X19	Y19	Z19	X20	Y20	Z20	X21	Y21	Z21	X22	Y22	Z22	X23	Y23	Z23	X24	Y24	Z24	X25	Y25	Z25	X26	Y26	Z26	X27	Y27	Z27	X28	Y28	Z28	X29	Y29	Z29	X30	Y30	Z30	X31	Y31	Z31	X32	Y32	Z32	X33	Y33	Z33	X34	Y34	Z34	X35	Y35	Z35	X36	Y36	Z36	X37	Y37	Z37	X38	Y38	Z38	X39	Y39	Z39	X40	Y40	Z40	X41	Y41	Z41	X42	Y42	Z42	X43	Y43	Z43	X44	Y44	Z44	X45	Y45	Z45	X46	Y46	Z46	X47	Y47	Z47	X48	Y48	Z48	X49	Y49	Z49	X50	Y50	Z50	X51	Y51	Z51	X52	Y52	Z52	X53	Y53	Z53	X54	Y54	Z54	

584	2.915000	-230.969523	1461.856665	-225.168625	-429.127629	1432.840149	-198.011212	-328.007678	1441.906805	-122.362921	-458.267163	1327.766149	-136.302083	-628.541027	1039.554822	-22.296421	-375.189665	1186.543061	-168.994784	-459.001468	1227.264786	-299.306486	-653.902209	1163.370021	-323.470312	-655.661631	1113.481818	-322.347916	-714.436116	1131.548930	-319.074417	-822.746548	1084.161072	-296.187361	-824.051680	1093.310689	-221.658557	-868.387849	836.932191	-227.076646	-940.498875	853.887217	-241.275291	-889.160556	762.780293	-250.044971	-333.982446	1307.755968	-33.524439	-330.562853	1216.177971	120.899903	-298.043398	1183.570232	123.238363	-324.355680	1174.793397	176.148135	-298.788834	1063.174715	252.828420	-342.423819	1011.106210	219.468199	-149.676739	1069.580742	42.813597	-107.012372	1034.399662	85.895422	-84.212762	1109.403271	27.023277	-463.750701	868.766679	92.181175	-663.209394	950.363157	10.033746	-677.120345	912.696350	-5.632763	-657.309595	928.522412	47.980761	-513.378665	635.876175	-211.391116	-440.126560	617.430867	-251.158935	-416.712248	658.096548	-261.100458	-405.464611	566.035821	-245.379846	-260.385825	382.698778	-163.204518	-344.334453	357.152107	-150.830471	-302.654409	346.714120	-144.880778	-298.339524	305.018532	-67.494278	-384.028472	215.372202	35.849006	-431.130890	233.080901	125.480035	-231.440008	156.499311	59.866773	-255.071676	138.116066	22.475714	-512.852043	674.678729	263.803779	-483.297640	619.961234	281.412419	-453.496511	610.160072	269.564145	-524.786306	549.310088	309.470056	-519.301496	446.420356	348.671793	-590.434751	248.360824	419.666149	-667.531788	249.690632	496.881835	-640.742062	214.834133	479.964621	-673.268899	167.213621	475.448278	-751.587245	144.172520	557.234863	-846.662173	119.783920	561.799614	-645.778627	54.711903	483.181719	-632.781939	54.992965	521.058025	-657.824404	38.848513	584.823404	
585	2.920000	-207.370206	1463.404581	-239.010179	-405.539281	1434.484000	-212.200496	-304.487335	1443.033184	-136.491478	-433.706143	1328.741202	-149.163945	-600.570252	1040.418854	-30.548516	-351.116913	1187.962408	-183.199156	-437.375242	1228.578920	-311.974706	-633.045820	1169.242866	-332.689816	-636.020805	1119.542342	-331.258909	-694.209652	1138.909571	-327.019057	-803.668934	1094.389325	-301.410231	-803.225532	1103.972787	-227.223329	-847.397529	847.352385	-231.666741	-919.864104	864.181655	-244.339748	-868.389873	772.921321	-253.820882	-307.439002	1310.399940	-50.069907	-299.315020	1218.881225	104.114859	-265.972255	1186.851671	105.570555	-291.236720	1177.259157	158.929073	-261.442622	1065.739370	234.130492	-304.571899	1012.510461	200.597688	-121.124484	1080.234122	18.306846	-75.457729	1046.734952	58.985538	-58.305913	1123.157572	0.163118	-435.993382	869.260954	84.307050	-634.768757	951.841130	2.095702	-649.077555	914.211684	-13.302435	-628.742972	930.071943	40.052201	-486.532760	639.525667	-220.192128	-413.125146	622.219833	-260.179163	-390.519375	663.422696	-270.121593	-377.470713	571.503758	-254.407065	-221.464082	387.214531	-177.757042	-303.225805	356.023531	-164.184439	-260.837189	347.917546	-159.801309	-251.312761	304.383434	-83.668770	-328.476203	206.420434	19.391139	-374.451074	219.444808	110.316411	-172.241741	155.024472	38.958264	-195.516096	136.453973	1.528724	-492.621576	675.938924	256.414034	-465.608788	619.991296	274.375367	-436.271694	609.043557	262.696460	-510.368859	551.591031	302.900658	-509.382246	449.282340	343.254062	-583.542846	252.438510	415.799023	-660.016336	255.489958	493.533058	-633.763598	220.068091	476.725961	-666.919991	172.790547	472.781849	-745.558819	151.482415	555.341044	-840.806678	130.893225	559.686260	-644.823185	53.879329	482.945203	-631.507172	54.696887	520.698524	-656.953202	40.655324	584.531360	
586	2.925000	-183.707269	1465.095882	-252.987118	-381.899065	1436.377172	-226.590702	-280.934428	1444.344930	-150.776571	-409.138249	1329.933936	-162.241020	-572.339856	1041.542279	-38.884827	-327.053239	1189.641101	-197.504562	-415.461086	1230.035385	-324.781166	-611.628993	1174.995701	-342.108649	-615.746917	1125.551004	-340.125770	-673.313426	1146.146207	-334.980742	-783.711716	1104.427713	-306.499780	-781.371066	1114.324976	-232.656493	-825.321397	857.364979	-236.670908	-898.159604	874.081132	-247.584973	-846.639242	782.652875	-258.200772	-281.189284	1313.159268	-66.626105	-268.527983	1221.673061	87.056135	-234.542368	1190.110728	87.583852	-258.640009	1179.857612	141.406931	-225.352320	1068.486187	215.293243	-268.197586	1014.336147	181.780849	-94.035200	1090.386928	-5.784137	-45.726816	1058.614250	32.457339	-33.930489	1136.200500	-26.092116	-407.931202	869.651976	75.907011	-605.999431	953.612783	-5.901800	-620.751910	916.009662	-20.900773	-599.690027	931.947542	32.092727	-459.765532	643.192110	-228.953034	-386.273407	626.593195	-269.021304	-364.276208	668.188600	-278.976441	-349.908762	576.399995	-263.153969	-183.346995	391.384739	-192.333290	-262.544552	354.738536	-177.761718	-219.645812	349.041465	-174.938133	-204.936206	303.918694	-100.445113	-272.930703	198.210161	1.975639	-317.479092	206.754344	94.008409	-113.645275	154.085270	17.315568	-136.598724	135.366577	-20.143631	-471.792713	677.766611	248.505872	-447.394941	620.607621	266.608290	-418.652295	608.487237	254.937186	-495.314601	554.685178	295.765461	-499.029053	453.094452	337.063698	-575.972797	257.336735	411.275909	-651.761325	261.882187	489.557243	-625.959232	225.981777	472.868199	-659.591099	178.954105	469.523257	-738.511220	159.257415	552.846722	-833.713016	142.633163	556.724781	-643.843214	52.991602	482.585462	-630.079932	54.479497	520.163709	-655.793824	42.937139	584.070967	
587	2.930000	-159.978885	1466.879560	-267.079923	-358.207078	1438.459324	-241.149610	-257.344079	1445.796507	-165.193283	-384.551057	1331.300141	-175.486454	-543.912285	1042.904284	-47.331816	-302.997958	1191.515965	-211.851049	-393.260790	1231.581350	-337.705408	-589.703986	1180.575094	-351.702381	-594.876350	1131.435024	-348.956561	-651.794092	1153.202729	-342.923645	-762.875394	1114.157239	-311.469472	-758.506624	1124.223268	-237.980714	-802.243553	866.843458	-242.101156	-875.448087	883.455353	-251.051405	-823.992247	791.856714	-263.217248	-255.175015	1315.960095	-83.120418	-238.159622	1224.489592	69.829046	-203.719719	1193.268018	69.389644	-226.542888	1182.509509	123.688208	-190.477559	1071.325176	196.488074	-233.288090	1016.487332	163.224008	-68.245225	1099.839308	-29.333785	-17.672478	1069.770391	6.456931	-10.876196	1148.297101	-51.610296	-379.639690	869.988811	67.013268	-576.982397	955.622339	-14.030180	-592.203823	918.042751	-28.514447	-570.262560	934.093793	24.047943	-433.072938	646.784147	-237.677030	-359.555870	630.468415	-277.687465	-337.967517	672.316353	-287.687750	-322.752807	580.633824	-271.628816	-146.083978	395.145266	-206.869445	-222.371440	353.277418	-191.465350	-179.172111	350.087589	-190.182804	-159.336315	303.579862	-117.766618	-217.584707	190.765932	-16.333150	-260.395034	195.079166	76.638396	-55.780132	153.640327	-5.031625	-78.460572	134.787459	-42.491416	-450.299669	680.131477	240.115047	-428.560245	621.807215	258.181699	-400.529517	608.504636	246.374845	-479.488144	558.547312	288.104474	-488.067628	457.800279	330.144492	-567.565226	263.015658	406.093314	-642.671433	268.816110	484.902418	-617.217057	232.522179	468.350669	-651.160178	185.644199	465.609659	-730.346325	167.424065	549.623104	-825.282434	154.909120	552.701852	-642.778830	52.137951	482.061396	-628.462562	54.393035	519.402226	-654.319511	45.764824	583.364693	
